<svg xmlns="http://www.w3.org/2000/svg" xmlns:xlink="http://www.w3.org/1999/xlink" viewBox="0 0 80.43 94.41"><defs><style>.cls-1,.cls-4{fill:none;}.cls-2{isolation:isolate;}.cls-3{clip-path:url(#clip-path);}.cls-4{stroke:#000;stroke-miterlimit:10;stroke-width:0.25px;}.cls-5{clip-path:url(#clip-path-2);}.cls-6{clip-path:url(#clip-path-3);}.cls-7{clip-path:url(#clip-path-4);}.cls-8{clip-path:url(#clip-path-5);}.cls-9{clip-path:url(#clip-path-6);}.cls-10{clip-path:url(#clip-path-7);}.cls-11{clip-path:url(#clip-path-8);}.cls-12{clip-path:url(#clip-path-9);}.cls-13{clip-path:url(#clip-path-10);}.cls-14{clip-path:url(#clip-path-11);}.cls-15{clip-path:url(#clip-path-12);}.cls-16{clip-path:url(#clip-path-13);}.cls-17{clip-path:url(#clip-path-14);}.cls-18{clip-path:url(#clip-path-15);}.cls-19{clip-path:url(#clip-path-16);}.cls-20{clip-path:url(#clip-path-17);}.cls-21{clip-path:url(#clip-path-18);}.cls-22{clip-path:url(#clip-path-19);}.cls-23{clip-path:url(#clip-path-20);}.cls-24{clip-path:url(#clip-path-21);}.cls-25{clip-path:url(#clip-path-22);}.cls-26{clip-path:url(#clip-path-23);}.cls-27{clip-path:url(#clip-path-24);}.cls-28{clip-path:url(#clip-path-25);}.cls-29{clip-path:url(#clip-path-26);}.cls-30{clip-path:url(#clip-path-27);}.cls-31{clip-path:url(#clip-path-28);}.cls-32{clip-path:url(#clip-path-29);}.cls-33{clip-path:url(#clip-path-30);}.cls-34{clip-path:url(#clip-path-31);}.cls-35{clip-path:url(#clip-path-32);}.cls-36{clip-path:url(#clip-path-33);}.cls-37{clip-path:url(#clip-path-34);}.cls-38{clip-path:url(#clip-path-35);}</style><clipPath id="clip-path" transform="translate(0.19 0.13)"><path class="cls-1" d="M47,40.58c.37,1.55.77,3,1.44,3.55L39.71,46c-.67-.51-1.08-2-1.44-3.55L37,37.19c-.88-3.73-2.7-5.84-11.26-4L15,35.52,18.5,50.58,9.73,52.47,0,11.06,22.89,6.13C33,4,39,6.58,41.2,16c1.11,4.71.28,8.92-3.22,12.12,4.11.8,6.84,3,7.81,7.18ZM27.46,24.4c4.83-1,5.83-2.89,5-6.51-.92-3.93-2.83-4.77-7.66-3.73l-14.12,3,2.42,10.3,14.39-3.1"/></clipPath><clipPath id="clip-path-2" transform="translate(0.19 0.13)"><path class="cls-1" d="M48.86,35.17c.37,1.55.77,3,1.44,3.55L41.54,40.6c-.67-.5-1.08-2-1.44-3.55l-1.25-5.28c-.87-3.72-2.69-5.83-11.25-4L16.79,30.11l3.54,15.06-8.77,1.89L1.83,5.65,24.72.72C34.85-1.46,40.81,1.17,43,10.59c1.11,4.71.28,8.91-3.22,12.11,4.1.81,6.84,3.05,7.81,7.19ZM29.29,19c4.83-1,5.83-2.89,5-6.51-.92-3.94-2.83-4.78-7.66-3.74l-14.12,3,2.42,10.3L29.29,19"/></clipPath><clipPath id="clip-path-3" transform="translate(0.19 0.13)"><path class="cls-1" d="M48.86,35.17c.37,1.55.77,3,1.44,3.55l-1.83,5.41c-.67-.51-1.07-2-1.44-3.55Z"/></clipPath><clipPath id="clip-path-4" transform="translate(0.19 0.13)"><polygon class="cls-1" points="50.3 38.72 48.47 44.13 39.71 46.02 41.54 40.6 50.3 38.72"/></clipPath><clipPath id="clip-path-5" transform="translate(0.19 0.13)"><path class="cls-1" d="M41.54,40.6,39.71,46c-.67-.51-1.08-2-1.44-3.55l1.83-5.42C40.46,38.61,40.87,40.1,41.54,40.6Z"/></clipPath><clipPath id="clip-path-6" transform="translate(0.19 0.13)"><polygon class="cls-1" points="40.1 37.05 38.27 42.47 37.02 37.19 38.85 31.77 40.1 37.05"/></clipPath><clipPath id="clip-path-7" transform="translate(0.19 0.13)"><path class="cls-1" d="M38.85,31.77,37,37.19c-.88-3.73-2.7-5.84-11.26-4l1.83-5.41C36.16,25.94,38,28.05,38.85,31.77Z"/></clipPath><clipPath id="clip-path-8" transform="translate(0.19 0.13)"><polygon class="cls-1" points="27.6 27.78 25.77 33.19 14.96 35.52 16.79 30.11 27.6 27.78"/></clipPath><clipPath id="clip-path-9" transform="translate(0.19 0.13)"><polygon class="cls-1" points="16.79 30.11 20.33 45.17 18.5 50.58 14.96 35.52 16.79 30.11"/></clipPath><clipPath id="clip-path-10" transform="translate(0.19 0.13)"><polygon class="cls-1" points="20.33 45.17 18.5 50.58 9.73 52.47 11.56 47.05 20.33 45.17"/></clipPath><clipPath id="clip-path-11" transform="translate(0.19 0.13)"><polygon class="cls-1" points="11.56 47.05 9.73 52.47 0 11.06 1.83 5.64 11.56 47.05"/></clipPath><clipPath id="clip-path-12" transform="translate(0.19 0.13)"><polygon class="cls-1" points="1.83 5.64 24.72 0.72 22.89 6.13 0 11.06 1.83 5.64"/></clipPath><clipPath id="clip-path-13" transform="translate(0.19 0.13)"><path class="cls-1" d="M42.9,18.07l-1.83,5.41A11.15,11.15,0,0,1,38,28.12l1.83-5.42A11.06,11.06,0,0,0,42.9,18.07Z"/></clipPath><clipPath id="clip-path-14" transform="translate(0.19 0.13)"><path class="cls-1" d="M41.07,23.48A13.59,13.59,0,0,0,41.2,16C39,6.58,33,4,22.89,6.13L24.72.72C34.85-1.46,40.81,1.17,43,10.59a13.6,13.6,0,0,1-.13,7.48Z"/></clipPath><clipPath id="clip-path-15" transform="translate(0.19 0.13)"><path class="cls-1" d="M39.81,22.7c4.1.81,6.84,3.05,7.81,7.19L45.79,35.3c-1-4.14-3.7-6.38-7.81-7.18Z"/></clipPath><clipPath id="clip-path-16" transform="translate(0.19 0.13)"><polygon class="cls-1" points="47.62 29.89 48.86 35.17 47.03 40.58 45.79 35.3 47.62 29.89"/></clipPath><clipPath id="clip-path-17" transform="translate(0.19 0.13)"><path class="cls-1" d="M34.33,15.86,32.5,21.27a6.19,6.19,0,0,0-.07-3.38c-.92-3.93-2.83-4.77-7.66-3.73L26.6,8.74c4.83-1,6.74-.2,7.66,3.74A6.19,6.19,0,0,1,34.33,15.86Z"/></clipPath><clipPath id="clip-path-18" transform="translate(0.19 0.13)"><path class="cls-1" d="M32.5,21.27c-.51,1.52-2,2.48-5,3.13L29.29,19c3-.65,4.53-1.61,5-3.13C33.79,17.49,33.05,19.65,32.5,21.27Z"/></clipPath><clipPath id="clip-path-19" transform="translate(0.19 0.13)"><polygon class="cls-1" points="26.6 8.74 24.77 14.16 10.65 17.2 12.48 11.78 26.6 8.74"/></clipPath><clipPath id="clip-path-20" transform="translate(0.19 0.13)"><polygon class="cls-1" points="12.48 11.78 14.9 22.08 13.07 27.5 10.65 17.2 12.48 11.78"/></clipPath><clipPath id="clip-path-21" transform="translate(0.19 0.13)"><polygon class="cls-1" points="14.9 22.08 29.29 18.99 27.46 24.4 13.07 27.5 14.9 22.08"/></clipPath><clipPath id="clip-path-22" transform="translate(0.19 0.13)"><polygon class="cls-1" points="79.89 50.89 78.3 94.02 69.3 93.71 69.94 76.3 46.29 75.48 45.64 92.9 36.64 92.59 38.24 49.46 47.23 49.77 46.59 67.13 70.25 67.94 70.89 50.58 79.89 50.89"/></clipPath><clipPath id="clip-path-23" transform="translate(0.19 0.13)"><polygon class="cls-1" points="77.22 48.56 75.63 91.69 66.63 91.38 67.27 73.96 43.61 73.15 42.97 90.56 33.97 90.25 35.56 47.12 44.56 47.43 43.92 64.79 67.58 65.61 68.22 48.25 77.22 48.56"/></clipPath><clipPath id="clip-path-24" transform="translate(0.19 0.13)"><polygon class="cls-1" points="77.22 48.56 79.89 50.89 78.3 94.02 75.63 91.69 77.22 48.56"/></clipPath><clipPath id="clip-path-25" transform="translate(0.19 0.13)"><polygon class="cls-1" points="75.63 91.69 78.3 94.02 69.3 93.71 66.63 91.38 75.63 91.69"/></clipPath><clipPath id="clip-path-26" transform="translate(0.19 0.13)"><polygon class="cls-1" points="66.63 91.38 67.27 73.96 69.94 76.3 69.3 93.71 66.63 91.38"/></clipPath><clipPath id="clip-path-27" transform="translate(0.19 0.13)"><polygon class="cls-1" points="67.27 73.96 69.94 76.3 46.29 75.48 43.61 73.15 67.27 73.96"/></clipPath><clipPath id="clip-path-28" transform="translate(0.19 0.13)"><polygon class="cls-1" points="43.61 73.15 46.29 75.48 45.64 92.9 42.97 90.56 43.61 73.15"/></clipPath><clipPath id="clip-path-29" transform="translate(0.19 0.13)"><polygon class="cls-1" points="42.97 90.56 45.64 92.9 36.64 92.59 33.97 90.25 42.97 90.56"/></clipPath><clipPath id="clip-path-30" transform="translate(0.19 0.13)"><polygon class="cls-1" points="33.97 90.25 35.56 47.12 38.24 49.46 36.64 92.59 33.97 90.25"/></clipPath><clipPath id="clip-path-31" transform="translate(0.19 0.13)"><polygon class="cls-1" points="35.56 47.12 44.56 47.43 47.23 49.77 38.24 49.46 35.56 47.12"/></clipPath><clipPath id="clip-path-32" transform="translate(0.19 0.13)"><polygon class="cls-1" points="44.56 47.43 47.23 49.77 46.59 67.13 43.92 64.79 44.56 47.43"/></clipPath><clipPath id="clip-path-33" transform="translate(0.19 0.13)"><polygon class="cls-1" points="43.92 64.79 67.58 65.61 70.25 67.94 46.59 67.13 43.92 64.79"/></clipPath><clipPath id="clip-path-34" transform="translate(0.19 0.13)"><polygon class="cls-1" points="67.58 65.61 68.22 48.25 70.89 50.58 70.25 67.94 67.58 65.61"/></clipPath><clipPath id="clip-path-35" transform="translate(0.19 0.13)"><polygon class="cls-1" points="68.22 48.25 77.22 48.56 79.89 50.89 70.89 50.58 68.22 48.25"/></clipPath></defs><g id="Layer_2" data-name="Layer 2"><g id="Layer_1-2" data-name="Layer 1"><g class="cls-2"><g class="cls-2"><g class="cls-3"><path class="cls-4" d="M47,40.58c.37,1.55.77,3,1.44,3.55L39.71,46c-.67-.51-1.08-2-1.44-3.55L37,37.19c-.88-3.73-2.7-5.84-11.26-4L15,35.52,18.5,50.58,9.73,52.47,0,11.06,22.89,6.13C33,4,39,6.58,41.2,16c1.11,4.71.28,8.92-3.22,12.12,4.11.8,6.84,3,7.81,7.18ZM27.46,24.4c4.83-1,5.83-2.89,5-6.51-.92-3.93-2.83-4.77-7.66-3.73l-14.12,3,2.42,10.3,14.39-3.1" transform="translate(0.19 0.13)"/></g></g><g class="cls-2"><g class="cls-5"><path class="cls-4" d="M48.86,35.17c.37,1.55.77,3,1.44,3.55L41.54,40.6c-.67-.5-1.08-2-1.44-3.55l-1.25-5.28c-.87-3.72-2.69-5.83-11.25-4L16.79,30.11l3.54,15.06-8.77,1.89L1.83,5.65,24.72.72C34.85-1.46,40.81,1.17,43,10.59c1.11,4.71.28,8.91-3.22,12.11,4.1.81,6.84,3.05,7.81,7.19ZM29.29,19c4.83-1,5.83-2.89,5-6.51-.92-3.94-2.83-4.78-7.66-3.74l-14.12,3,2.42,10.3L29.29,19" transform="translate(0.19 0.13)"/></g></g><g class="cls-2"><g class="cls-6"><g class="cls-2"><path class="cls-4" d="M48.86,35.17,47,40.58c.37,1.55.77,3,1.44,3.55l1.83-5.41C49.63,38.21,49.23,36.72,48.86,35.17Z" transform="translate(0.19 0.13)"/><line class="cls-4" x1="49.44" y1="36.79" x2="47.61" y2="42.2"/><line class="cls-4" x1="49.9" y1="38.04" x2="48.07" y2="43.45"/></g><path class="cls-4" d="M48.86,35.17c.37,1.55.77,3,1.44,3.55l-1.83,5.41c-.67-.51-1.07-2-1.44-3.55Z" transform="translate(0.19 0.13)"/></g></g><g class="cls-2"><g class="cls-7"><polygon class="cls-4" points="50.49 38.84 48.66 44.26 39.9 46.14 41.73 40.73 50.49 38.84"/></g></g><g class="cls-2"><g class="cls-8"><g class="cls-2"><path class="cls-4" d="M41.54,40.6,39.71,46c-.67-.51-1.08-2-1.44-3.55l1.83-5.42C40.46,38.61,40.87,40.1,41.54,40.6Z" transform="translate(0.19 0.13)"/><line class="cls-4" x1="41.14" y1="39.93" x2="39.31" y2="45.34"/><line class="cls-4" x1="40.67" y1="38.68" x2="38.84" y2="44.09"/></g><path class="cls-4" d="M41.54,40.6,39.71,46c-.67-.51-1.08-2-1.44-3.55l1.83-5.42C40.46,38.61,40.87,40.1,41.54,40.6Z" transform="translate(0.19 0.13)"/></g></g><g class="cls-2"><g class="cls-9"><polygon class="cls-4" points="40.28 37.18 38.45 42.59 37.21 37.31 39.04 31.9 40.28 37.18"/></g></g><g class="cls-2"><g class="cls-10"><g class="cls-2"><path class="cls-4" d="M38.85,31.77,37,37.19c-.88-3.73-2.7-5.84-11.26-4l1.83-5.41C36.16,25.94,38,28.05,38.85,31.77Z" transform="translate(0.19 0.13)"/><line class="cls-4" x1="37.64" y1="28.8" x2="35.81" y2="34.21"/><line class="cls-4" x1="34.32" y1="27.29" x2="32.49" y2="32.71"/></g><path class="cls-4" d="M38.85,31.77,37,37.19c-.88-3.73-2.7-5.84-11.26-4l1.83-5.41C36.16,25.94,38,28.05,38.85,31.77Z" transform="translate(0.19 0.13)"/></g></g><g class="cls-2"><g class="cls-11"><polygon class="cls-4" points="27.79 27.9 25.96 33.32 15.15 35.64 16.98 30.23 27.79 27.9"/></g></g><g class="cls-2"><g class="cls-12"><polygon class="cls-4" points="16.98 30.23 20.52 45.29 18.69 50.71 15.15 35.64 16.98 30.23"/></g></g><g class="cls-2"><g class="cls-13"><polygon class="cls-4" points="20.52 45.29 18.69 50.71 9.92 52.59 11.75 47.18 20.52 45.29"/></g></g><g class="cls-2"><g class="cls-14"><polygon class="cls-4" points="11.75 47.18 9.92 52.59 0.19 11.18 2.02 5.77 11.75 47.18"/></g></g><g class="cls-2"><g class="cls-15"><polygon class="cls-4" points="2.02 5.77 24.91 0.84 23.08 6.26 0.19 11.18 2.02 5.77"/></g></g><g class="cls-2"><g class="cls-16"><g class="cls-2"><path class="cls-4" d="M43,10.59,41.2,16c1.11,4.71.28,8.92-3.22,12.12l1.83-5.42C43.31,19.5,44.14,15.3,43,10.59Z" transform="translate(0.19 0.13)"/><line class="cls-4" x1="42.63" y1="19.31" x2="40.8" y2="24.73"/></g><path class="cls-4" d="M42.9,18.07l-1.83,5.41A11.15,11.15,0,0,1,38,28.12l1.83-5.42A11.06,11.06,0,0,0,42.9,18.07Z" transform="translate(0.19 0.13)"/></g></g><g class="cls-2"><g class="cls-17"><g class="cls-2"><path class="cls-4" d="M24.72.72,22.89,6.13C33,4,39,6.58,41.2,16L43,10.59C40.81,1.17,34.85-1.46,24.72.72Z" transform="translate(0.19 0.13)"/><line class="cls-4" x1="33.66" y1="0.34" x2="31.83" y2="5.75"/><line class="cls-4" x1="39.74" y1="3.49" x2="37.91" y2="8.9"/><path class="cls-4" d="M43,10.59,41.2,16c1.11,4.71.28,8.92-3.22,12.12l1.83-5.42C43.31,19.5,44.14,15.3,43,10.59Z" transform="translate(0.19 0.13)"/><line class="cls-4" x1="43.65" y1="15.24" x2="41.82" y2="20.65"/></g><path class="cls-4" d="M41.07,23.48A13.59,13.59,0,0,0,41.2,16C39,6.58,33,4,22.89,6.13L24.72.72C34.85-1.46,40.81,1.17,43,10.59a13.6,13.6,0,0,1-.13,7.48Z" transform="translate(0.19 0.13)"/></g></g><g class="cls-2"><g class="cls-18"><g class="cls-2"><path class="cls-4" d="M39.81,22.7,38,28.12c4.11.8,6.84,3,7.81,7.18l1.83-5.41C46.65,25.75,43.91,23.51,39.81,22.7Z" transform="translate(0.19 0.13)"/><line class="cls-4" x1="43.63" y1="24.13" x2="41.8" y2="29.54"/><line class="cls-4" x1="46.26" y1="26.49" x2="44.44" y2="31.9"/></g><path class="cls-4" d="M39.81,22.7c4.1.81,6.84,3.05,7.81,7.19L45.79,35.3c-1-4.14-3.7-6.38-7.81-7.18Z" transform="translate(0.19 0.13)"/></g></g><g class="cls-2"><g class="cls-19"><polygon class="cls-4" points="47.81 30.01 49.05 35.29 47.22 40.7 45.98 35.43 47.81 30.01"/></g></g><g class="cls-2"><g class="cls-20"><g class="cls-2"><path class="cls-4" d="M29.29,19,27.46,24.4c4.83-1,5.83-2.89,5-6.51l1.83-5.41C35.12,16.1,34.12,18,29.29,19Z" transform="translate(0.19 0.13)"/><line class="cls-4" x1="34.61" y1="15.67" x2="32.78" y2="21.08"/><path class="cls-4" d="M34.26,12.48l-1.83,5.41c-.92-3.93-2.83-4.77-7.66-3.73L26.6,8.74C31.43,7.7,33.34,8.54,34.26,12.48Z" transform="translate(0.19 0.13)"/><line class="cls-4" x1="33.13" y1="9.65" x2="31.3" y2="15.07"/><line class="cls-4" x1="30.72" y1="8.5" x2="28.89" y2="13.91"/></g><path class="cls-4" d="M34.33,15.86,32.5,21.27a6.19,6.19,0,0,0-.07-3.38c-.92-3.93-2.83-4.77-7.66-3.73L26.6,8.74c4.83-1,6.74-.2,7.66,3.74A6.19,6.19,0,0,1,34.33,15.86Z" transform="translate(0.19 0.13)"/></g></g><g class="cls-2"><g class="cls-21"><g class="cls-2"><path class="cls-4" d="M29.29,19,27.46,24.4c4.83-1,5.83-2.89,5-6.51l1.83-5.41C35.12,16.1,34.12,18,29.29,19Z" transform="translate(0.19 0.13)"/><line class="cls-4" x1="33.1" y1="17.77" x2="31.27" y2="23.18"/></g><path class="cls-4" d="M32.5,21.27c-.51,1.52-2,2.48-5,3.13L29.29,19c3-.65,4.53-1.61,5-3.13C33.79,17.49,33.05,19.65,32.5,21.27Z" transform="translate(0.19 0.13)"/></g></g><g class="cls-2"><g class="cls-22"><polygon class="cls-4" points="26.79 8.87 24.96 14.28 10.84 17.32 12.67 11.91 26.79 8.87"/></g></g><g class="cls-2"><g class="cls-23"><polygon class="cls-4" points="12.67 11.91 15.09 22.21 13.26 27.62 10.84 17.32 12.67 11.91"/></g></g><g class="cls-2"><g class="cls-24"><polygon class="cls-4" points="15.09 22.21 29.48 19.11 27.65 24.52 13.26 27.62 15.09 22.21"/></g></g></g><g class="cls-2"><g class="cls-2"><g class="cls-25"><polygon class="cls-4" points="80.08 51.02 78.49 94.15 69.49 93.84 70.13 76.42 46.48 75.61 45.83 93.02 36.83 92.71 38.42 49.58 47.42 49.89 46.78 67.25 70.44 68.07 71.08 50.71 80.08 51.02"/></g></g><g class="cls-2"><g class="cls-26"><polygon class="cls-4" points="77.41 48.68 75.81 91.81 66.81 91.5 67.46 74.09 43.8 73.27 43.16 90.69 34.16 90.38 35.75 47.25 44.75 47.56 44.11 64.92 67.77 65.73 68.41 48.37 77.41 48.68"/></g></g><g class="cls-2"><g class="cls-27"><polygon class="cls-4" points="77.41 48.68 80.08 51.02 78.49 94.15 75.81 91.81 77.41 48.68"/></g></g><g class="cls-2"><g class="cls-28"><polygon class="cls-4" points="75.81 91.81 78.49 94.15 69.49 93.84 66.81 91.5 75.81 91.81"/></g></g><g class="cls-2"><g class="cls-29"><polygon class="cls-4" points="66.81 91.5 67.46 74.09 70.13 76.42 69.49 93.84 66.81 91.5"/></g></g><g class="cls-2"><g class="cls-30"><polygon class="cls-4" points="67.46 74.09 70.13 76.42 46.48 75.61 43.8 73.27 67.46 74.09"/></g></g><g class="cls-2"><g class="cls-31"><polygon class="cls-4" points="43.8 73.27 46.48 75.61 45.83 93.02 43.16 90.69 43.8 73.27"/></g></g><g class="cls-2"><g class="cls-32"><polygon class="cls-4" points="43.16 90.69 45.83 93.02 36.83 92.71 34.16 90.38 43.16 90.69"/></g></g><g class="cls-2"><g class="cls-33"><polygon class="cls-4" points="34.16 90.38 35.75 47.25 38.42 49.58 36.83 92.71 34.16 90.38"/></g></g><g class="cls-2"><g class="cls-34"><polygon class="cls-4" points="35.75 47.25 44.75 47.56 47.42 49.89 38.42 49.58 35.75 47.25"/></g></g><g class="cls-2"><g class="cls-35"><polygon class="cls-4" points="44.75 47.56 47.42 49.89 46.78 67.25 44.11 64.92 44.75 47.56"/></g></g><g class="cls-2"><g class="cls-36"><polygon class="cls-4" points="44.11 64.92 67.77 65.73 70.44 68.07 46.78 67.25 44.11 64.92"/></g></g><g class="cls-2"><g class="cls-37"><polygon class="cls-4" points="67.77 65.73 68.41 48.37 71.08 50.71 70.44 68.07 67.77 65.73"/></g></g><g class="cls-2"><g class="cls-38"><polygon class="cls-4" points="68.41 48.37 77.41 48.68 80.08 51.02 71.08 50.71 68.41 48.37"/></g></g></g></g></g></svg>